<?xml version="1.0" encoding="utf-8"?><svg xmlns="http://www.w3.org/2000/svg" xmlns:xlink="http://www.w3.org/1999/xlink"><symbol viewBox="0 0 32 32" id="cross"><path d="M31.708 25.708L22 16l9.708-9.708a1.001 1.001 0 0 0 0-1.414L27.122.292a1.005 1.005 0 0 0-1.414 0L16 9.998 6.292.29a.992.992 0 0 0-.357-.226.997.997 0 0 0-1.057.23L.292 4.877a1.005 1.005 0 0 0 0 1.414L10 16 .292 25.708a1.001 1.001 0 0 0 0 1.414l4.586 4.586a1.005 1.005 0 0 0 1.414 0L16 22l9.708 9.708a1.001 1.001 0 0 0 1.414 0l4.586-4.586a1.001 1.001 0 0 0 0-1.414z"/></symbol><symbol viewBox="0 0 342.357 342.357" id="tick"><path d="M290.04 33.286l-171.18 171.14-66.54-66.52L0 190.227 118.862 309.07 342.357 85.607"/></symbol></svg>